<?xml version="1.0" encoding="iso-8859-1"?>
<!-- Generator: Adobe Illustrator 19.0.0, SVG Export Plug-In . SVG Version: 6.00 Build 0)  -->
<svg version="1.1" id="Capa_1" xmlns="http://www.w3.org/2000/svg" xmlns:xlink="http://www.w3.org/1999/xlink" x="0px" y="0px"
	 viewBox="0 0 512 512" style="enable-background:new 0 0 512 512;" xml:space="preserve">
<g>
	<g>
		<path d="M249.84,214.214l-31.738-67.439c-1.935-4.112-1.95-8.87-0.041-12.994l34.253-73.984
			c-10.42-10.775-22.287-19.947-35.115-27.052c-20.963-11.611-44.601-17.749-68.359-17.749C66.769,14.996,0,86.431,0,174.237
			c0,26.041,6.007,51.882,17.356,74.699c42.689,86.282,103.057,150.191,146.184,188.611c35.387,31.525,64.855,51.302,77.79,59.458
			l-23.452-54.791c-1.726-4.034-1.646-8.614,0.223-12.584l31.738-67.448l-31.738-67.445c-1.95-4.142-1.95-8.939,0-13.081
			L249.84,214.214z"/>
	</g>
</g>
<g>
	<g>
		<path d="M363.16,14.996c-21.839,0-43.57,5.199-63.222,15.055l-50.988,110.13l31.762,67.492c1.949,4.142,1.949,8.939,0,13.081
			l-31.738,67.443l31.738,67.445c1.949,4.142,1.949,8.937,0,13.08l-31.878,67.746l25.037,58.494
			c14.208-9.161,41.863-28.261,74.588-57.415c43.126-38.419,103.495-102.328,146.169-188.581
			C505.993,226.119,512,200.279,512,174.237C512,86.431,445.231,14.996,363.16,14.996z"/>
	</g>
</g>
<g>
</g>
<g>
</g>
<g>
</g>
<g>
</g>
<g>
</g>
<g>
</g>
<g>
</g>
<g>
</g>
<g>
</g>
<g>
</g>
<g>
</g>
<g>
</g>
<g>
</g>
<g>
</g>
<g>
</g>
</svg>
