<?xml version="1.0" encoding="iso-8859-1"?>
<!-- Generator: Adobe Illustrator 18.1.1, SVG Export Plug-In . SVG Version: 6.00 Build 0)  -->
<svg version="1.1" id="Capa_1" xmlns="http://www.w3.org/2000/svg" xmlns:xlink="http://www.w3.org/1999/xlink" x="0px" y="0px"
	 viewBox="0 0 416.043 416.043" style="enable-background:new 0 0 416.043 416.043;" xml:space="preserve">
<g>
	<g>
		<path style="fill:#030104;" d="M208.86,80.696C84.671,76.046-3.953,136.891,0.136,214.624c0,51.973,70.945,99.063,141.394,115.228
			c0,0-0.357,20.263-24.416,53.068c52.804-9.686,91.313-46.161,91.313-46.161s16.252-0.813,17.884-0.87
			c91.267-5.813,162.656-56.548,162.656-118.37C388.967,151.903,308.305,80.696,208.86,80.696z M111.467,236.684
			c-16.106,0-29.188-13.035-29.188-29.181c0-16.122,13.082-29.196,29.188-29.196c16.138,0,29.22,13.074,29.22,29.196
			C140.688,223.648,127.605,236.684,111.467,236.684z M191.467,236.684c-16.105,0-29.188-13.035-29.188-29.181
			c0-16.122,13.082-29.196,29.188-29.196c16.138,0,29.222,13.074,29.222,29.196C220.689,223.648,207.605,236.684,191.467,236.684z
			 M271.468,236.684c-16.105,0-29.188-13.035-29.188-29.181c0-16.122,13.082-29.196,29.188-29.196
			c16.139,0,29.221,13.074,29.221,29.196C300.689,223.648,287.607,236.684,271.468,236.684z"/>
		<path style="fill:#030104;" d="M272.189,33.322c-53.318-1.995-98.421,11.129-128.234,33.334c23.07-4.393,48.248-6.32,75.021-5.318
			c92.221,0,168.932,58.788,184.655,119.916c7.976-11.806,12.412-24.883,12.412-38.65C416.042,90.196,351.617,33.322,272.189,33.322
			z"/>
	</g>
</g>
<g>
</g>
<g>
</g>
<g>
</g>
<g>
</g>
<g>
</g>
<g>
</g>
<g>
</g>
<g>
</g>
<g>
</g>
<g>
</g>
<g>
</g>
<g>
</g>
<g>
</g>
<g>
</g>
<g>
</g>
</svg>
