<?xml version="1.0" encoding="iso-8859-1"?>
<!-- Generator: Adobe Illustrator 18.1.1, SVG Export Plug-In . SVG Version: 6.00 Build 0)  -->
<svg version="1.1" id="Capa_1" xmlns="http://www.w3.org/2000/svg" xmlns:xlink="http://www.w3.org/1999/xlink" x="0px" y="0px"
	 viewBox="0 0 239.988 239.988" style="enable-background:new 0 0 239.988 239.988;" xml:space="preserve">
<g>
	<path style="fill:#010002;" d="M201.61,12.361H38.394C15.915,12.361,0,27.629,0,50.745v85.323C0,157.361,14.734,174.5,38.394,174.5
		h9.197c5.08,0,10.122,4.781,11.248,10.682l7.109,36.991c1.126,5.901,5.472,7.218,9.687,2.943l42.332-42.876
		c4.226-4.275,12.515-7.74,18.525-7.74h65.111c23.105,0,38.383-18.906,38.383-38.432V50.745
		C239.988,28.265,223.491,12.361,201.61,12.361z M48.413,111.216c-9.763,0-17.677-7.914-17.677-17.677s7.914-17.677,17.677-17.677
		S66.09,83.776,66.09,93.539S58.171,111.216,48.413,111.216z M115.667,105.777c-6.755,0-12.238-5.483-12.238-12.238
		c0-6.755,5.483-12.238,12.238-12.238c6.755,0,12.238,5.483,12.238,12.238C127.905,100.295,122.422,105.777,115.667,105.777z
		 M191.58,111.216c-9.763,0-17.677-7.914-17.677-17.677s7.914-17.677,17.677-17.677s17.677,7.914,17.677,17.677
		S201.343,111.216,191.58,111.216z"/>
</g>
<g>
</g>
<g>
</g>
<g>
</g>
<g>
</g>
<g>
</g>
<g>
</g>
<g>
</g>
<g>
</g>
<g>
</g>
<g>
</g>
<g>
</g>
<g>
</g>
<g>
</g>
<g>
</g>
<g>
</g>
</svg>
