<svg id="bold" enable-background="new 0 0 24 24" height="512" viewBox="0 0 24 24" width="512" xmlns="http://www.w3.org/2000/svg"><g><path d="m18 4.6h-2.036l-.898-1.759c-.266-.52-.799-.841-1.395-.841h-3.342c-.596 0-1.129.321-1.396.841l-.897 1.759h-2.036c-1.102 0-2 .875-2 1.95v6.5c0 1.075.898 1.95 2 1.95h12c1.102 0 2-.875 2-1.95v-6.5c0-1.075-.898-1.95-2-1.95zm-2.889 4.767c0 1.673-1.396 3.033-3.111 3.033s-3.111-1.361-3.111-3.033 1.395-3.034 3.111-3.034 3.111 1.361 3.111 3.034z"/></g><g><g><path d="m10.251 21.664c-.029 0-.059-.001-.088-.004-5.984-.524-10.163-3.16-10.163-6.41 0-1.003.163-1.761.998-2.667.374-.406 1.006-.433 1.413-.059.406.374.433 1.007.059 1.413-.411.446-.47.681-.47 1.313 0 2.068 3.662 4.008 8.337 4.417.55.048.958.533.909 1.083-.045.521-.482.914-.995.914z"/></g></g><g><g><path d="m14.234 21.616c-.503 0-.936-.379-.993-.891-.06-.549.336-1.043.885-1.104 4.71-.517 7.874-2.549 7.874-4.121 0-.787-.137-1.033-.569-1.691-.303-.462-.174-1.082.287-1.385.463-.303 1.083-.174 1.385.287.558.851.897 1.463.897 2.789 0 2.925-4.061 5.494-9.655 6.11-.037.004-.074.006-.111.006z"/></g></g><g><path d="m11.78 20.22-2.5-2.5c-.214-.214-.537-.278-.817-.163-.28.116-.463.39-.463.693v5c0 .303.183.577.463.693.093.038.19.057.287.057.195 0 .387-.076.53-.22l2.5-2.5c.293-.293.293-.767 0-1.06z"/></g></svg>